<?xml version="1.0" encoding="utf-8"?><svg viewBox="0 0 30 31" xmlns="http://www.w3.org/2000/svg" xmlns:xlink="http://www.w3.org/1999/xlink"><style>:root>svg{display:none}:root>svg:target{display:block}</style><svg  viewBox="0 0 15 15" id="Arrow_Up" xmlns="http://www.w3.org/2000/svg"><g clip-path="url(#aclip0_2_1288)"><path fill-rule="evenodd" clip-rule="evenodd" d="M8.25 15h-1.5V7h-5.5l7-7v15z" /></g><defs><clipPath id="aclip0_2_1288"><path  d="M0 0h15v15H0z"/></clipPath></defs></svg><svg  viewBox="0 0 18 18" id="angle-down" xmlns="http://www.w3.org/2000/svg"><path fill-rule="evenodd" clip-rule="evenodd" d="M3.47 6.76L4.53 5.7 9 10.17l4.47-4.47 1.06 1.06L9 12.292l-5.53-5.53z" /></svg><svg  viewBox="0 0 18 18" id="angle-up" xmlns="http://www.w3.org/2000/svg"><path fill-rule="evenodd" clip-rule="evenodd" d="M3.47 11.24l1.06 1.06L9 7.83l4.47 4.47 1.06-1.06L9 5.708l-5.53 5.53z" /></svg><svg  viewBox="0 0 15 15" id="arrow-down" xmlns="http://www.w3.org/2000/svg"><g clip-path="url(#dclip0_2_1290)"><path fill-rule="evenodd" clip-rule="evenodd" d="M6.75 0h1.5v8h5.5l-7 7V0z" /></g><defs><clipPath id="dclip0_2_1290"><path  d="M0 0h15v15H0z"/></clipPath></defs></svg><svg  viewBox="0 0 15 15" id="arrow-left" xmlns="http://www.w3.org/2000/svg"><g clip-path="url(#eclip0_2_1284)"><path fill-rule="evenodd" clip-rule="evenodd" d="M15 6.75v1.5H7v5.5l-7-7h15z" /></g><defs><clipPath id="eclip0_2_1284"><path  d="M0 0h15v15H0z"/></clipPath></defs></svg><svg  viewBox="0 0 15 15" id="arrow-right" xmlns="http://www.w3.org/2000/svg"><g clip-path="url(#fclip0_2_1286)"><path fill-rule="evenodd" clip-rule="evenodd" d="M0 8.25v-1.5h8v-5.5l7 7H0z" /></g><defs><clipPath id="fclip0_2_1286"><path  d="M0 0h15v15H0z"/></clipPath></defs></svg><svg  viewBox="0 0 18 18" id="clip" xmlns="http://www.w3.org/2000/svg"><path fill-rule="evenodd" clip-rule="evenodd" d="M11.609 1.942a3.744 3.744 0 115.294 5.294l-.423.424a.75.75 0 01-1.06-1.06l.423-.424a2.244 2.244 0 10-3.174-3.174L5.472 10.2a1.046 1.046 0 101.48 1.48l5.504-5.504a.75.75 0 011.06 1.06l-5.504 5.505a2.546 2.546 0 01-3.6-3.601l7.197-7.198zm-2.75.423a.75.75 0 010 1.06L2.508 9.778a3.441 3.441 0 004.867 4.867l6.35-6.351a.75.75 0 011.062 1.06l-6.351 6.351a4.941 4.941 0 11-6.989-6.988l6.351-6.35a.75.75 0 011.06 0z" /></svg><svg  viewBox="0 0 18 18" id="info" xmlns="http://www.w3.org/2000/svg"><circle cx="9" cy="9" r="9" /><path d="M8.117 6.1h1.74V4.42h-1.74V6.1zm-.156 6.024c0 .612.264.876.876.876h1.92v-1.74h-.456c-.168 0-.264-.096-.264-.264v-3.3c0-.612-.264-.876-.876-.876h-1.92v1.74h.456c.168 0 .264.096.264.264v3.3z" /></svg><svg viewBox="0 0 30 31" id="logo" xmlns="http://www.w3.org/2000/svg"><path fill-rule="evenodd" clip-rule="evenodd" d="M6.091 5.47l2.233 2.233a10.223 10.223 0 015.883-2.437V2.108A13.357 13.357 0 006.091 5.47zm9.702-3.362v3.158a10.224 10.224 0 015.883 2.437l2.233-2.233a13.357 13.357 0 00-8.116-3.362zm9.237 4.483l-2.233 2.233a10.223 10.223 0 012.437 5.883h3.158a13.357 13.357 0 00-3.362-8.116zm3.362 9.702h-3.158a10.223 10.223 0 01-2.437 5.883l2.233 2.233a13.357 13.357 0 003.362-8.116zm-4.483 9.237l-2.233-2.233a10.223 10.223 0 01-5.883 2.437v3.158c3.107-.181 5.93-1.42 8.116-3.362zm-9.702 3.362v-3.158a10.223 10.223 0 01-5.883-2.437L6.091 25.53a13.357 13.357 0 008.116 3.362zM4.97 24.409l2.233-2.233a10.224 10.224 0 01-2.437-5.883H1.608a13.357 13.357 0 003.362 8.116zm-3.362-9.702h3.158a10.223 10.223 0 012.437-5.883L4.97 6.591a13.357 13.357 0 00-3.362 8.116zm2.785-9.814A14.956 14.956 0 0115 .5c4.142 0 7.893 1.68 10.607 4.393A14.956 14.956 0 0130 15.5c0 4.142-1.68 7.893-4.393 10.607A14.956 14.956 0 0115 30.5c-4.142 0-7.893-1.68-10.607-4.393A14.956 14.956 0 010 15.5c0-4.142 1.68-7.893 4.393-10.607zM15 6.821a8.65 8.65 0 00-6.137 2.542A8.65 8.65 0 006.321 15.5a8.65 8.65 0 002.542 6.137A8.65 8.65 0 0015 24.179a8.65 8.65 0 006.137-2.542 8.65 8.65 0 002.542-6.137 8.65 8.65 0 00-2.542-6.137A8.65 8.65 0 0015 6.821zm-1.102 3.126v3.382h-1.585v-.715a3.933 3.933 0 00-1.256 2.886c0 1.139.483 2.166 1.256 2.886v-.715h1.585v3.382l-1.11-.485a5.53 5.53 0 010-10.136l1.11-.485zm2.204 0l1.11.485a5.53 5.53 0 010 10.136l-1.11.485v-3.382h1.585v.715a3.933 3.933 0 001.256-2.886 3.933 3.933 0 00-1.256-2.886v.715h-1.585V9.947z" fill="inherit"/></svg><svg  viewBox="0 0 19 18" id="map-marker" xmlns="http://www.w3.org/2000/svg"><path fill-rule="evenodd" clip-rule="evenodd" d="M8.75 17.426l.217.172.532.399.532-.4.217-.171a26.184 26.184 0 003.073-2.92c1.65-1.853 3.452-4.482 3.452-7.232a7.274 7.274 0 00-14.548 0c0 2.75 1.803 5.379 3.452 7.232a26.187 26.187 0 003.073 2.92zM9.499 1.5a5.774 5.774 0 00-5.774 5.774c0 2.158 1.46 4.422 3.072 6.235A24.667 24.667 0 009.5 16.102a24.662 24.662 0 002.702-2.593c1.613-1.813 3.072-4.077 3.072-6.235A5.774 5.774 0 009.499 1.5z" /><path fill-rule="evenodd" clip-rule="evenodd" d="M9.499 4.762a2.512 2.512 0 100 5.024 2.512 2.512 0 000-5.024zM5.487 7.274a4.012 4.012 0 118.024 0 4.012 4.012 0 01-8.024 0z" /></svg><svg  viewBox="0 0 18 18" id="menu" xmlns="http://www.w3.org/2000/svg"><path fill-rule="evenodd" clip-rule="evenodd" d="M18 3.75H0v-1.5h18v1.5zm0 6H0v-1.5h18v1.5zm0 6H0v-1.5h18v1.5z" /></svg><svg  viewBox="0 0 18 18" id="phone" xmlns="http://www.w3.org/2000/svg"><g clip-path="url(#lclip0_2_1300)"><path fill-rule="evenodd" clip-rule="evenodd" d="M13.471.039a1.527 1.527 0 00-1.742.882l-.001.003-1.549 3.61c-.267.623-.09 1.35.44 1.779l1.486 1.218a11.21 11.21 0 01-4.573 4.572l-1.22-1.489a1.52 1.52 0 00-1.777-.437L.927 11.723l-.006.003a1.533 1.533 0 00-.882 1.745l.773 3.351c.16.688.772 1.18 1.484 1.18C10.96 18 17.998 10.98 18 2.301A1.513 1.513 0 0016.823.815L13.47.039zm-.366 1.479l-1.547 3.607 2.413 1.996-.248.529A12.692 12.692 0 017.65 13.72l-.528.248-1.997-2.413L1.523 13.1a.042.042 0 00-.02.019c-.004.008-.003.013-.003.013v.001l.773 3.351c.002.01.01.017.023.017C10.135 16.5 16.5 10.148 16.5 2.3v-.007-.007l-.002-.003-.003-.003-.007-.002h-.002L13.135 1.5h-.008a.026.026 0 00-.008.002.03.03 0 00-.014.015z" /></g><defs><clipPath id="lclip0_2_1300"><path  d="M0 0h18v18H0z"/></clipPath></defs></svg><svg  viewBox="0 0 18 18" id="plus" xmlns="http://www.w3.org/2000/svg"><path fill-rule="evenodd" clip-rule="evenodd" d="M8.25 8.25V4h1.5v4.25H14v1.5H9.75V14h-1.5V9.75H4v-1.5h4.25z" /></svg><svg  viewBox="0 0 18 18" id="spinner" xmlns="http://www.w3.org/2000/svg"><path d="M9.93 2.383c.255.255.383.565.383.93 0 .364-.128.674-.383.93a1.266 1.266 0 01-.93.382c-.365 0-.674-.128-.93-.383a1.266 1.266 0 01-.383-.93c0-.364.128-.674.383-.93C8.326 2.129 8.635 2 9 2c.365 0 .674.128.93.383zM8.07 13.758c.256-.255.565-.383.93-.383.365 0 .674.128.93.383.255.255.383.565.383.93 0 .364-.128.674-.383.93A1.266 1.266 0 019 16c-.365 0-.674-.128-.93-.383a1.266 1.266 0 01-.383-.93c0-.364.128-.674.383-.93zm5.688-5.688c.255-.255.565-.383.93-.383.364 0 .674.128.93.383.254.256.382.565.382.93 0 .365-.128.674-.383.93a1.266 1.266 0 01-.93.383c-.364 0-.674-.128-.93-.383a1.266 1.266 0 01-.382-.93c0-.365.128-.674.383-.93zm-9.516 0c.255.256.383.565.383.93 0 .365-.128.674-.383.93a1.266 1.266 0 01-.93.383c-.364 0-.674-.128-.93-.383A1.266 1.266 0 012 9c0-.365.128-.674.383-.93.255-.255.565-.383.93-.383.364 0 .674.128.93.383zm-.191 4.02c.255-.255.565-.383.93-.383.364 0 .674.128.93.383.254.255.382.565.382.93 0 .364-.128.674-.383.93a1.266 1.266 0 01-.93.382c-.364 0-.674-.128-.93-.383a1.266 1.266 0 01-.382-.93c0-.364.128-.674.383-.93zm8.039 0c.255-.255.565-.383.93-.383.364 0 .674.128.93.383.254.255.382.565.382.93 0 .364-.128.674-.383.93a1.266 1.266 0 01-.93.382c-.364 0-.674-.128-.93-.383a1.266 1.266 0 01-.382-.93c0-.364.128-.674.383-.93zM4.05 4.05c.256-.254.566-.382.93-.382.365 0 .675.128.93.383s.383.565.383.93c0 .364-.128.674-.383.93a1.266 1.266 0 01-.93.382c-.364 0-.674-.128-.93-.383a1.266 1.266 0 01-.382-.93c0-.364.128-.674.383-.93z" /></svg></svg>